<svg width="25" height="24" viewBox="0 0 25 24" fill="none" xmlns="http://www.w3.org/2000/svg">
<path fill-rule="evenodd" clip-rule="evenodd" d="M11.1388 2C16.172 2 20.2522 6.02944 20.2522 11C20.2522 13.1248 19.5066 15.0776 18.2597 16.6172L21.9808 20.2929C22.3762 20.6834 22.3762 21.3166 21.9808 21.7071C21.6158 22.0676 21.0414 22.0953 20.6442 21.7903L20.5488 21.7071L16.8268 18.0323C15.2678 19.2637 13.2904 20 11.1388 20C6.10561 20 2.02539 15.9706 2.02539 11C2.02539 6.02944 6.10561 2 11.1388 2ZM11.1388 4C7.22409 4 4.05059 7.13401 4.05059 11C4.05059 14.866 7.22409 18 11.1388 18C15.0535 18 18.227 14.866 18.227 11C18.227 7.13401 15.0535 4 11.1388 4Z" fill="#383E56"/>
</svg>
