<svg width="24" height="24" viewBox="0 0 24 24" fill="none" xmlns="http://www.w3.org/2000/svg">
<path d="M16.7932 13.6001C16.9846 13.0885 17.0818 12.5464 17.0798 12.0001C17.0798 10.7872 16.598 9.62392 15.7403 8.76626C14.8827 7.90859 13.7194 7.42676 12.5065 7.42676C11.967 7.42739 11.4319 7.52447 10.9265 7.71342L11.9998 8.82009C12.163 8.79399 12.3279 8.78061 12.4932 8.78009C13.3508 8.7783 14.1743 9.11592 14.7838 9.71922C15.3934 10.3225 15.7395 11.1425 15.7465 12.0001C15.746 12.1653 15.7326 12.3303 15.7065 12.4934L16.7932 13.6001Z" fill="#551BFA"/>
<path d="M22.8601 11.6867C20.6134 7.53335 16.6734 5.02002 12.3134 5.02002C11.1263 5.02281 9.94718 5.21408 8.82007 5.58669L9.8934 6.66669C10.684 6.46237 11.4969 6.35712 12.3134 6.35335C16.0667 6.35335 19.4801 8.44668 21.5134 11.9734C20.7675 13.2818 19.7787 14.4357 18.6001 15.3734L19.5467 16.32C20.9108 15.2196 22.0436 13.8601 22.8801 12.32L23.0534 12L22.8601 11.6867Z" fill="#551BFA"/>
<path d="M3.24667 3.85344L6.22 6.82677C4.34062 8.03685 2.8046 9.71062 1.76 11.6868L1.58667 12.0001L1.76 12.3201C4.00667 16.4734 7.94667 18.9868 12.3067 18.9868C14.0084 18.9864 15.6881 18.6013 17.22 17.8601L20.5533 21.1934L21.72 20.1934L4.38667 2.86011L3.24667 3.85344ZM9.74667 10.3534L14.18 14.7868C13.6791 15.0968 13.1024 15.2629 12.5133 15.2668C12.0853 15.2668 11.6615 15.1821 11.2663 15.0177C10.871 14.8533 10.5122 14.6124 10.2105 14.3088C9.90875 14.0052 9.67002 13.6449 9.50804 13.2487C9.34606 12.8525 9.26403 12.4281 9.26667 12.0001C9.27418 11.4178 9.44012 10.8486 9.74667 10.3534ZM8.78 9.38677C8.15629 10.2664 7.86395 11.3383 7.95475 12.4128C8.04554 13.4872 8.51361 14.4949 9.27607 15.2574C10.0385 16.0198 11.0462 16.4879 12.1207 16.5787C13.1951 16.6695 14.2671 16.3772 15.1467 15.7534L16.2133 16.8201C14.9785 17.3479 13.6496 17.6201 12.3067 17.6201C8.55333 17.6201 5.14 15.5268 3.10667 12.0001C4.08247 10.2723 5.48782 8.82557 7.18667 7.80011L8.78 9.38677Z" fill="#551BFA"/>
</svg>
