<svg width="32" height="32" viewBox="0 0 32 32" fill="none" xmlns="http://www.w3.org/2000/svg">
<path d="M24.0001 13.3334C24.0001 11.2117 23.1572 9.17685 21.6569 7.67656C20.1566 6.17627 18.1218 5.33341 16.0001 5.33341C13.8783 5.33341 11.8435 6.17627 10.3432 7.67656C8.84294 9.17685 8.00008 11.2117 8.00008 13.3334V24.0001H24.0001V13.3334ZM26.6667 24.8894L27.2001 25.6001C27.2744 25.6991 27.3196 25.8169 27.3307 25.9402C27.3418 26.0635 27.3184 26.1875 27.263 26.2982C27.2077 26.409 27.1226 26.5021 27.0172 26.5672C26.9119 26.6323 26.7906 26.6667 26.6667 26.6667H5.33342C5.20961 26.6667 5.08824 26.6323 4.98293 26.5672C4.87761 26.5021 4.7925 26.409 4.73713 26.2982C4.68176 26.1875 4.65832 26.0635 4.66944 25.9402C4.68056 25.8169 4.7258 25.6991 4.80008 25.6001L5.33342 24.8894V13.3334C5.33342 10.5044 6.45722 7.79133 8.45761 5.79094C10.458 3.79055 13.1711 2.66675 16.0001 2.66675C18.8291 2.66675 21.5422 3.79055 23.5426 5.79094C25.5429 7.79133 26.6667 10.5044 26.6667 13.3334V24.8894ZM12.6667 28.0001H19.3334C19.3334 28.8841 18.9822 29.732 18.3571 30.3571C17.732 30.9822 16.8841 31.3334 16.0001 31.3334C15.116 31.3334 14.2682 30.9822 13.6431 30.3571C13.0179 29.732 12.6667 28.8841 12.6667 28.0001Z" fill="#383E56"/>
</svg>
