<svg width="184" height="193" viewBox="0 0 184 193" fill="none" xmlns="http://www.w3.org/2000/svg">
<g clip-path="url(#clip0)">
<path d="M91.9998 176.5C133.802 176.5 167.69 142.612 167.69 100.81C167.69 59.0078 133.802 25.1204 91.9998 25.1204C50.1975 25.1204 16.3101 59.0078 16.3101 100.81C16.3101 142.612 50.1975 176.5 91.9998 176.5Z" stroke="#383E56" stroke-width="2" stroke-miterlimit="10" stroke-dasharray="12 12"/>
<path d="M92 192.555C142.669 192.555 183.745 151.48 183.745 100.81C183.745 50.1406 142.669 9.06494 92 9.06494C41.3306 9.06494 0.254883 50.1406 0.254883 100.81C0.254883 151.48 41.3306 192.555 92 192.555Z" stroke="#383E56" stroke-width="2" stroke-miterlimit="10" stroke-dasharray="12 12"/>
<path d="M153.403 130.039C153.404 124.884 151.482 119.915 148.012 116.103C144.543 112.291 139.776 109.911 134.644 109.428C129.512 108.946 124.385 110.395 120.266 113.494C116.147 116.592 113.332 121.116 112.372 126.18L48.7646 124.455L49.4629 135.383C49.4629 135.383 40.3929 156.311 88.0622 161.887V183.039H143.17V147.87C146.283 146.048 148.864 143.444 150.659 140.316C152.454 137.188 153.4 133.645 153.403 130.039Z" fill="url(#paint0_linear)"/>
<path d="M51.6471 135.841C51.6471 135.841 42.9619 155.883 88.6128 161.229V181.495H141.389V127.827L50.9692 125.375L51.6471 135.841Z" fill="#F0C4A4"/>
<path d="M78.0244 52.208C76.6482 54.3795 74.4687 55.9182 71.9617 56.4878C69.4548 57.0575 66.8243 56.6119 64.6449 55.2483L36.3084 36.5756C34.1369 35.1995 32.5982 33.0199 32.0285 30.513C31.4589 28.0061 31.9045 25.3756 33.268 23.1961C34.6441 21.0274 36.8218 19.4908 39.3262 18.9212C41.8307 18.3517 44.4588 18.7955 46.6373 20.1558L74.9739 38.8285C77.1471 40.203 78.6878 42.3818 79.2594 44.8889C79.831 47.396 79.387 50.0273 78.0244 52.208Z" fill="url(#paint1_linear)"/>
<path d="M76.4543 51.1888C75.1751 53.2072 73.1491 54.6374 70.8189 55.167C68.4887 55.6965 66.0436 55.2824 64.0177 54.015L37.669 36.6446C35.6505 35.3654 34.2203 33.3395 33.6907 31.0092C33.1612 28.679 33.5753 26.2339 34.8427 24.208C36.1219 22.1896 38.1478 20.7593 40.4781 20.2298C42.8083 19.7002 45.2534 20.1144 47.2793 21.3818L73.6229 38.742C75.645 40.0204 77.0783 42.0479 77.6089 44.3807C78.1396 46.7134 77.7244 49.1614 76.4543 51.1888Z" fill="#F0C4A4"/>
<path d="M131.371 150.541C142.317 150.541 151.191 141.667 151.191 130.721C151.191 119.775 142.317 110.902 131.371 110.902C120.425 110.902 111.552 119.775 111.552 130.721C111.552 141.667 120.425 150.541 131.371 150.541Z" fill="#F0C4A4"/>
<path d="M127.803 0H51.8792C50.155 0 48.7573 1.39771 48.7573 3.12188V145.189C48.7573 146.913 50.155 148.311 51.8792 148.311H127.803C129.528 148.311 130.925 146.913 130.925 145.189V3.12188C130.925 1.39771 129.528 0 127.803 0Z" fill="url(#paint2_linear)"/>
<path d="M126.336 2.00574H53.3423C51.4225 2.00574 49.8662 3.56205 49.8662 5.48186V142.835C49.8662 144.754 51.4225 146.311 53.3423 146.311H126.336C128.256 146.311 129.812 144.754 129.812 142.835V5.48186C129.812 3.56205 128.256 2.00574 126.336 2.00574Z" fill="white"/>
<path d="M109.923 5.62463C109.692 7.15499 108.921 8.55205 107.749 9.56311C106.577 10.5742 105.082 11.1325 103.534 11.137H75.9241C74.3768 11.1318 72.8824 10.5733 71.7111 9.56228C70.5398 8.55128 69.7688 7.15456 69.5376 5.62463H54.9094C54.5106 5.6243 54.1156 5.70256 53.747 5.85495C53.3785 6.00733 53.0436 6.23085 52.7615 6.51273C52.4794 6.79462 52.2556 7.12933 52.1029 7.49775C51.9502 7.86617 51.8716 8.26106 51.8716 8.65987V139.652C51.8712 140.05 51.9495 140.445 52.1019 140.814C52.2543 141.182 52.4778 141.517 52.7597 141.799C53.0416 142.082 53.3763 142.305 53.7447 142.458C54.1131 142.611 54.508 142.689 54.9068 142.689H124.771C125.17 142.69 125.565 142.611 125.933 142.459C126.302 142.307 126.637 142.083 126.919 141.801C127.201 141.519 127.425 141.185 127.577 140.816C127.73 140.448 127.809 140.053 127.809 139.654V8.66242C127.809 8.26361 127.731 7.86865 127.578 7.5001C127.426 7.13156 127.202 6.79665 126.92 6.51454C126.639 6.23242 126.304 6.00862 125.935 5.85592C125.567 5.70323 125.172 5.62463 124.773 5.62463H109.923Z" fill="#6A1D25"/>
<path d="M98.3512 7.34985H81.5541C81.2726 7.34985 81.0444 7.57805 81.0444 7.85955V7.95384C81.0444 8.23534 81.2726 8.46354 81.5541 8.46354H98.3512C98.6327 8.46354 98.8609 8.23534 98.8609 7.95384V7.85955C98.8609 7.57805 98.6327 7.34985 98.3512 7.34985Z" fill="#DBDBDB"/>
<path d="M102.645 8.46358C103.014 8.46358 103.312 8.16464 103.312 7.79588C103.312 7.42711 103.014 7.12817 102.645 7.12817C102.276 7.12817 101.977 7.42711 101.977 7.79588C101.977 8.16464 102.276 8.46358 102.645 8.46358Z" fill="#DBDBDB"/>
<path d="M144.183 134.218C138.431 135.548 134.483 131.797 133.153 126.048L119.936 76.9715C119.305 74.199 119.796 71.2891 121.302 68.8773C122.809 66.4655 125.208 64.7478 127.977 64.0992C130.75 63.4675 133.659 63.9585 136.071 65.465C138.483 66.9714 140.201 69.371 140.849 72.1396L151.634 122.482C152.965 128.234 149.932 132.888 144.183 134.218Z" fill="url(#paint3_linear)"/>
<path d="M139.366 73.3412C138.245 68.4879 133.402 65.4627 128.548 66.584C123.695 67.7053 120.67 72.5487 121.791 77.4019L133.944 130.001C135.066 134.854 139.909 137.879 144.762 136.758C149.615 135.636 152.641 130.793 151.519 125.94L139.366 73.3412Z" fill="#F0C4A4"/>
<path d="M151.107 174.864H75.6719V192.448H151.107V174.864Z" fill="url(#paint4_linear)"/>
<path d="M149.068 176.903H77.7104V190.664H149.068V176.903Z" fill="#383E56"/>
<path d="M67.0252 104.854C65.6657 107 63.5124 108.521 61.0355 109.084C58.5586 109.647 55.9596 109.206 53.8062 107.859L34.8022 95.5627C32.6565 94.2033 31.1361 92.0499 30.5731 89.573C30.0101 87.0961 30.4503 84.4971 31.7976 82.3437C33.157 80.1981 35.3104 78.6776 37.7873 78.1146C40.2641 77.5516 42.8632 77.9918 45.0165 79.3391L64.0205 91.6355C66.1662 92.9949 67.6866 95.1483 68.2496 97.6252C68.8126 100.102 68.3724 102.701 67.0252 104.854Z" fill="url(#paint5_linear)"/>
<path d="M62.2544 130.882C60.8829 133.048 58.7101 134.582 56.2107 135.15C53.7113 135.718 51.0886 135.274 48.9157 133.915L37.1443 125.332C34.9789 123.96 33.4444 121.787 32.8762 119.288C32.3079 116.788 32.7521 114.166 34.1116 111.993C35.4831 109.828 37.6559 108.293 40.1553 107.725C42.6547 107.157 45.2774 107.601 47.4503 108.96L59.2217 117.546C61.3864 118.917 62.9203 121.09 63.4886 123.589C64.0568 126.087 63.6131 128.709 62.2544 130.882Z" fill="url(#paint6_linear)"/>
<g opacity="0.5">
<path opacity="0.5" d="M89.8385 97.079C102.497 97.079 112.76 86.8169 112.76 74.158C112.76 61.4991 102.497 51.2371 89.8385 51.2371C77.1796 51.2371 66.9175 61.4991 66.9175 74.158C66.9175 86.8169 77.1796 97.079 89.8385 97.079Z" fill="url(#paint7_linear)"/>
</g>
<path d="M89.839 95.731C101.753 95.731 111.412 86.0725 111.412 74.1582C111.412 62.2438 101.753 52.5853 89.839 52.5853C77.9246 52.5853 68.2661 62.2438 68.2661 74.1582C68.2661 86.0725 77.9246 95.731 89.839 95.731Z" fill="#50FEA9"/>
<path d="M80.4761 71.2783L88.565 78.6944L100.025 61.8413L104.072 65.2129L88.565 85.4377L77.1045 72.629L80.4761 71.2783Z" fill="white"/>
<path d="M61.3036 130.242C60.0244 132.261 57.9985 133.691 55.6682 134.221C53.338 134.75 50.8929 134.336 48.867 133.069L37.8882 125.077C35.8697 123.798 34.4395 121.772 33.91 119.441C33.3804 117.111 33.7946 114.666 35.0619 112.64C36.3411 110.622 38.3671 109.191 40.6973 108.662C43.0275 108.132 45.4726 108.546 47.4985 109.814L58.4748 117.821C60.4895 119.1 61.9172 121.123 62.4471 123.449C62.9769 125.776 62.5659 128.218 61.3036 130.242Z" fill="#F0C4A4"/>
<path d="M65.9803 104.179C64.7011 106.198 62.6752 107.628 60.3449 108.157C58.0147 108.687 55.5696 108.273 53.5437 107.005L35.6636 95.4354C33.6451 94.1562 32.2149 92.1302 31.6854 89.8C31.1558 87.4698 31.5699 85.0247 32.8373 82.9988C34.1165 80.9803 36.1424 79.5501 38.4727 79.0206C40.8029 78.491 43.248 78.9052 45.2739 80.1725L63.154 91.7426C65.1725 93.0218 66.6027 95.0477 67.1323 97.378C67.6618 99.7082 67.2477 102.153 65.9803 104.179Z" fill="#F0C4A4"/>
<path d="M71.9387 78.9491C70.5726 81.1043 68.4092 82.6312 65.9209 83.1966C63.4327 83.762 60.8219 83.3197 58.6586 81.9665L34.5755 66.2857C32.4203 64.9196 30.8933 62.7562 30.328 60.268C29.7626 57.7797 30.2049 55.1689 31.5581 53.0056C32.9242 50.8505 35.0876 49.3235 37.5758 48.7582C40.0641 48.1928 42.6749 48.635 44.8382 49.9882L68.9213 65.669C71.0764 67.0351 72.6034 69.1986 73.1688 71.6868C73.7341 74.175 73.2919 76.7859 71.9387 78.9491Z" fill="url(#paint8_linear)"/>
<path d="M70.6597 78.1337C69.3805 80.1522 67.3545 81.5824 65.0243 82.112C62.6941 82.6415 60.249 82.2274 58.2231 80.96L35.6665 66.2731C33.6481 64.994 32.2178 62.968 31.6883 60.6378C31.1587 58.3076 31.5729 55.8624 32.8403 53.8366C34.1194 51.8181 36.1454 50.3879 38.4756 49.8583C40.8059 49.3288 43.251 49.7429 45.2768 51.0103L67.8309 65.6972C69.8497 66.9759 71.2805 69.0017 71.8105 71.332C72.3406 73.6622 71.9268 76.1076 70.6597 78.1337Z" fill="#F0C4A4"/>
</g>
<defs>
<linearGradient id="paint0_linear" x1="101.087" y1="183.052" x2="101.087" y2="109.34" gradientUnits="userSpaceOnUse">
<stop stop-color="#808080" stop-opacity="0.25"/>
<stop offset="0.54" stop-color="#808080" stop-opacity="0.12"/>
<stop offset="1" stop-color="#808080" stop-opacity="0.1"/>
</linearGradient>
<linearGradient id="paint1_linear" x1="21854.4" y1="11237.2" x2="21854.4" y2="5554.69" gradientUnits="userSpaceOnUse">
<stop stop-color="#808080" stop-opacity="0.25"/>
<stop offset="0.54" stop-color="#808080" stop-opacity="0.12"/>
<stop offset="1" stop-color="#808080" stop-opacity="0.1"/>
</linearGradient>
<linearGradient id="paint2_linear" x1="48591.9" y1="97003.8" x2="48591.9" y2="10692.6" gradientUnits="userSpaceOnUse">
<stop stop-color="#808080" stop-opacity="0.25"/>
<stop offset="0.54" stop-color="#808080" stop-opacity="0.12"/>
<stop offset="1" stop-color="#808080" stop-opacity="0.1"/>
</linearGradient>
<linearGradient id="paint3_linear" x1="25033.9" y1="42451.2" x2="25033.9" y2="22861.1" gradientUnits="userSpaceOnUse">
<stop stop-color="#808080" stop-opacity="0.25"/>
<stop offset="0.54" stop-color="#808080" stop-opacity="0.12"/>
<stop offset="1" stop-color="#808080" stop-opacity="0.1"/>
</linearGradient>
<linearGradient id="paint4_linear" x1="51607.7" y1="14705.2" x2="51607.7" y2="13491.8" gradientUnits="userSpaceOnUse">
<stop stop-color="#808080" stop-opacity="0.25"/>
<stop offset="0.54" stop-color="#808080" stop-opacity="0.12"/>
<stop offset="1" stop-color="#808080" stop-opacity="0.1"/>
</linearGradient>
<linearGradient id="paint5_linear" x1="16546.4" y1="15838.9" x2="16546.4" y2="11958.3" gradientUnits="userSpaceOnUse">
<stop stop-color="#808080" stop-opacity="0.25"/>
<stop offset="0.54" stop-color="#808080" stop-opacity="0.12"/>
<stop offset="1" stop-color="#808080" stop-opacity="0.1"/>
</linearGradient>
<linearGradient id="paint6_linear" x1="13343.6" y1="16949.5" x2="13343.6" y2="13892.8" gradientUnits="userSpaceOnUse">
<stop stop-color="#808080" stop-opacity="0.25"/>
<stop offset="0.54" stop-color="#808080" stop-opacity="0.12"/>
<stop offset="1" stop-color="#808080" stop-opacity="0.1"/>
</linearGradient>
<linearGradient id="paint7_linear" x1="16227.2" y1="17513.8" x2="16227.2" y2="9267.3" gradientUnits="userSpaceOnUse">
<stop stop-color="#808080" stop-opacity="0.25"/>
<stop offset="0.54" stop-color="#808080" stop-opacity="0.12"/>
<stop offset="1" stop-color="#808080" stop-opacity="0.1"/>
</linearGradient>
<linearGradient id="paint8_linear" x1="19180.1" y1="14003.7" x2="19180.1" y2="9218.85" gradientUnits="userSpaceOnUse">
<stop stop-color="#808080" stop-opacity="0.25"/>
<stop offset="0.54" stop-color="#808080" stop-opacity="0.12"/>
<stop offset="1" stop-color="#808080" stop-opacity="0.1"/>
</linearGradient>
<clipPath id="clip0">
<rect width="184" height="192.81" fill="white"/>
</clipPath>
</defs>
</svg>
